<svg xmlns="http://www.w3.org/2000/svg" viewBox="0 0 991.2 544.1" xml:space="preserve"><g stroke="#231F20" stroke-width="5" stroke-miterlimit="10"><path fill="#EAE1C5" d="M64.6 73.3h322.8c24.9 0 45.1 20.2 45.1 45.1v322.8c0 24.9-20.2 45.1-45.1 45.1H64.6c-24.9 0-45.1-20.2-45.1-45.1V118.5c-.1-25 20.1-45.2 45.1-45.2z"/><path fill="#EAE1C6" d="M64.5 73.2h322.8c24.9 0 45.1 20.2 45.1 45.1v322.8c0 24.9-20.2 45.1-45.1 45.1H64.5c-24.9 0-45.1-20.2-45.1-45.1V118.4c-.1-25 20.1-45.2 45.1-45.2z"/><path fill="#E9E1C6" d="M64.4 73.2h322.8c24.9 0 45.1 20.2 45.1 45.1v322.8c0 24.9-20.2 45.1-45.1 45.1H64.4c-24.9 0-45.1-20.2-45.1-45.1V118.3c-.1-24.9 20.1-45.1 45.1-45.1z"/><path fill="#E9E1C7" d="M64.2 73.1H387c24.9 0 45.1 20.2 45.1 45.1V441c0 24.9-20.2 45.1-45.1 45.1H64.2c-24.9 0-45.1-20.2-45.1-45.1V118.2c0-24.9 20.2-45.1 45.1-45.1z"/><path fill="#E8E0C8" d="M64.1 73h322.8c24.9 0 45.1 20.2 45.1 45.1v322.8c0 24.9-20.2 45.1-45.1 45.1H64.1C39.2 486 19 465.8 19 440.9V118.1C19 93.2 39.2 73 64.1 73z"/><path fill="#E7E0C9" d="M64 72.9h322.8c24.9 0 45.1 20.2 45.1 45.1v322.8c0 24.9-20.2 45.1-45.1 45.1H64c-24.9 0-45.1-20.2-45.1-45.1V118c0-24.9 20.2-45.1 45.1-45.1z"/><path fill="#E7E0C9" d="M63.9 72.8h322.8c24.9 0 45.1 20.2 45.1 45.1v322.8c0 24.9-20.2 45.1-45.1 45.1H63.9c-24.9 0-45.1-20.2-45.1-45.1V117.9C18.8 93 39 72.8 63.9 72.8z"/><path fill="#E6E0CA" d="M63.8 72.7h322.8c24.9 0 45.1 20.2 45.1 45.1v322.8c0 24.9-20.2 45.1-45.1 45.1H63.8c-24.9 0-45.1-20.2-45.1-45.1V117.8c-.1-24.9 20.2-45.1 45.1-45.1z"/><path fill="#E6E0CB" d="M63.7 72.6h322.8c24.9 0 45.1 20.2 45.1 45.1v322.8c0 24.9-20.2 45.1-45.1 45.1H63.7c-24.9 0-45.1-20.2-45.1-45.1V117.8c-.1-25 20.1-45.2 45.1-45.2z"/><path fill="#E5E0CB" d="M63.6 72.5h322.8c24.9 0 45.1 20.2 45.1 45.1v322.8c0 24.9-20.2 45.1-45.1 45.1H63.6c-24.9 0-45.1-20.2-45.1-45.1V117.7c-.1-25 20.1-45.2 45.1-45.2z"/><path fill="#E4E0CC" d="M63.4 72.4h322.8c24.9 0 45.1 20.2 45.1 45.1v322.8c0 24.9-20.2 45.1-45.1 45.1H63.4c-24.9 0-45.1-20.2-45.1-45.1V117.6c0-25 20.2-45.2 45.1-45.2z"/><path fill="#E4DFCD" d="M63.3 72.3h322.8c24.9 0 45.1 20.2 45.1 45.1v322.8c0 24.9-20.2 45.1-45.1 45.1H63.3c-24.9 0-45.1-20.2-45.1-45.1V117.5c0-25 20.2-45.2 45.1-45.2z"/><path fill="#E3DFCD" d="M63.2 72.2H386c24.9 0 45.1 20.2 45.1 45.1v322.8c0 24.9-20.2 45.1-45.1 45.1H63.2c-24.9 0-45.1-20.2-45.1-45.1V117.4c0-24.9 20.2-45.2 45.1-45.2z"/><path fill="#E3DFCE" d="M63.1 72.2h322.8c24.9 0 45.1 20.2 45.1 45.1v322.8c0 24.9-20.2 45.1-45.1 45.1H63.1C38.2 485.2 18 465 18 440.1V117.3c0-24.9 20.2-45.1 45.1-45.1z"/><path fill="#E2DFCF" d="M63 72.1h322.8c24.9 0 45.1 20.2 45.1 45.1V440c0 24.9-20.2 45.1-45.1 45.1H63c-24.9 0-45.1-20.2-45.1-45.1V117.2C17.8 92.3 38.1 72.1 63 72.1z"/><path fill="#E1DFCF" d="M62.9 72h322.8c24.9 0 45.1 20.2 45.1 45.1v322.8c0 24.9-20.2 45.1-45.1 45.1H62.9c-24.9 0-45.1-20.2-45.1-45.1V117.1C17.7 92.2 37.9 72 62.9 72z"/><path fill="#E1DFD0" d="M62.8 71.9h322.8c24.9 0 45.1 20.2 45.1 45.1v322.8c0 24.9-20.2 45.1-45.1 45.1H62.8c-24.9 0-45.1-20.2-45.1-45.1V117c-.1-24.9 20.1-45.1 45.1-45.1z"/><path fill="#E0DFD1" d="M62.6 71.8h322.8c24.9 0 45.1 20.2 45.1 45.1v322.8c0 24.9-20.2 45.1-45.1 45.1H62.6c-24.9 0-45.1-20.2-45.1-45.1V116.9c0-24.9 20.2-45.1 45.1-45.1z"/><path fill="#E0DFD1" d="M62.5 71.7h322.8c24.9 0 45.1 20.2 45.1 45.1v322.8c0 24.9-20.2 45.1-45.1 45.1H62.5c-24.9 0-45.1-20.2-45.1-45.1V116.9c0-25 20.2-45.2 45.1-45.2z"/><path fill="#DFDED2" d="M62.4 71.6h322.8c24.9 0 45.1 20.2 45.1 45.1v322.8c0 24.9-20.2 45.1-45.1 45.1H62.4c-24.9 0-45.1-20.2-45.1-45.1V116.8c0-25 20.2-45.2 45.1-45.2z"/><path fill="#DEDED3" d="M62.3 71.5h322.8c24.9 0 45.1 20.2 45.1 45.1v322.8c0 24.9-20.2 45.1-45.1 45.1H62.3c-24.9 0-45.1-20.2-45.1-45.1V116.7c0-25 20.2-45.2 45.1-45.2z"/><path fill="#DEDED3" d="M62.2 71.4H385c24.9 0 45.1 20.2 45.1 45.1v322.8c0 24.9-20.2 45.1-45.1 45.1H62.2c-24.9 0-45.1-20.2-45.1-45.1V116.6c0-24.9 20.2-45.2 45.1-45.2z"/><path fill="#DDDED4" d="M62.1 71.4h322.8c24.9 0 45.1 20.2 45.1 45.1v322.8c0 24.9-20.2 45.1-45.1 45.1H62.1c-24.9 0-45.1-20.2-45.1-45.1V116.5c-.1-24.9 20.1-45.1 45.1-45.1z"/><path fill="#DDDED5" d="M62 71.3h322.8c24.9 0 45.1 20.2 45.1 45.1v322.8c0 24.9-20.2 45.1-45.1 45.1H62c-24.9 0-45.1-20.2-45.1-45.1V116.4C16.8 91.5 37 71.3 62 71.3z"/><path fill="#DCDED5" d="M61.9 71.2h322.8c24.9 0 45.1 20.2 45.1 45.1v322.8c0 24.9-20.2 45.1-45.1 45.1H61.9c-24.9 0-45.1-20.2-45.1-45.1V116.3c-.1-24.9 20.1-45.1 45.1-45.1z"/><path fill="#DBDED6" d="M61.7 71.1h322.8c24.9 0 45.1 20.2 45.1 45.1V439c0 24.9-20.2 45.1-45.1 45.1H61.7c-24.9 0-45.1-20.2-45.1-45.1V116.2c0-24.9 20.2-45.1 45.1-45.1z"/><path fill="#DBDED7" d="M61.6 71h322.8c24.9 0 45.1 20.2 45.1 45.1v322.8c0 24.9-20.2 45.1-45.1 45.1H61.6c-24.9 0-45.1-20.2-45.1-45.1V116.1C16.5 91.2 36.7 71 61.6 71z"/><path fill="#DADDD7" d="M61.5 70.9h322.8c24.9 0 45.1 20.2 45.1 45.1v322.8c0 24.9-20.2 45.1-45.1 45.1H61.5c-24.9 0-45.1-20.2-45.1-45.1V116.1c0-25 20.2-45.2 45.1-45.2z"/><path fill="#DADDD8" d="M61.4 70.8h322.8c24.9 0 45.1 20.2 45.1 45.1v322.8c0 24.9-20.2 45.1-45.1 45.1H61.4c-24.9 0-45.1-20.2-45.1-45.1V116c0-25 20.2-45.2 45.1-45.2z"/><path fill="#D9DDD9" d="M61.3 70.7h322.8c24.9 0 45.1 20.2 45.1 45.1v322.8c0 24.9-20.2 45.1-45.1 45.1H61.3c-24.9 0-45.1-20.2-45.1-45.1V115.9c-.1-25 20.2-45.2 45.1-45.2z"/><path fill="#D8DDD9" d="M61.2 70.6H384c24.9 0 45.1 20.2 45.1 45.1v322.8c0 24.9-20.2 45.1-45.1 45.1H61.2c-24.9 0-45.1-20.2-45.1-45.1V115.8c-.1-25 20.1-45.2 45.1-45.2z"/><path fill="#D8DDDA" d="M61.1 70.6h322.8c24.9 0 45.1 20.2 45.1 45.1v322.8c0 24.9-20.2 45.1-45.1 45.1H61.1c-24.9 0-45.1-20.2-45.1-45.1V115.7c-.1-24.9 20.1-45.1 45.1-45.1z"/><path fill="#D7DDDB" d="M60.9 70.5h322.8c24.9 0 45.1 20.2 45.1 45.1v322.8c0 24.9-20.2 45.1-45.1 45.1H60.9c-24.9 0-45.1-20.2-45.1-45.1V115.6c0-24.9 20.2-45.1 45.1-45.1z"/><path fill="#D7DDDB" d="M60.8 70.4h322.8c24.9 0 45.1 20.2 45.1 45.1v322.8c0 24.9-20.2 45.1-45.1 45.1H60.8c-24.9 0-45.1-20.2-45.1-45.1V115.5c0-24.9 20.2-45.1 45.1-45.1z"/><path fill="#D6DCDC" d="M60.7 70.3h322.8c24.9 0 45.1 20.2 45.1 45.1v322.8c0 24.9-20.2 45.1-45.1 45.1H60.7c-24.9 0-45.1-20.2-45.1-45.1V115.4c0-24.9 20.2-45.1 45.1-45.1z"/><path fill="#D5DCDD" d="M60.6 70.2h322.8c24.9 0 45.1 20.2 45.1 45.1v322.8c0 24.9-20.2 45.1-45.1 45.1H60.6c-24.9 0-45.1-20.2-45.1-45.1V115.3c0-24.9 20.2-45.1 45.1-45.1z"/><path fill="#D5DCDD" d="M60.5 70.1h322.8c24.9 0 45.1 20.2 45.1 45.1V438c0 24.9-20.2 45.1-45.1 45.1H60.5c-24.9 0-45.1-20.2-45.1-45.1V115.2c-.1-24.9 20.2-45.1 45.1-45.1z"/><path fill="#D4DCDE" d="M60.4 70h322.8c24.9 0 45.1 20.2 45.1 45.1v322.8c0 24.9-20.2 45.1-45.1 45.1H60.4c-24.9 0-45.1-20.2-45.1-45.1V115.2C15.2 90.2 35.4 70 60.4 70z"/><path fill="#D4DCDF" d="M60.3 69.9H383c24.9 0 45.1 20.2 45.1 45.1v322.8c0 24.9-20.2 45.1-45.1 45.1H60.3c-24.9 0-45.1-20.2-45.1-45.1V115.1c-.1-25 20.1-45.2 45.1-45.2z"/><path fill="#D3DCDF" d="M60.1 69.8h322.8c24.9 0 45.1 20.2 45.1 45.1v322.8c0 24.9-20.2 45.1-45.1 45.1H60.1c-24.9 0-45.1-20.2-45.1-45.1V115c0-25 20.2-45.2 45.1-45.2z"/><path fill="#D2DCE0" d="M60 69.7h322.8c24.9 0 45.1 20.2 45.1 45.1v322.8c0 24.9-20.2 45.1-45.1 45.1H60c-24.9 0-45.1-20.2-45.1-45.1V114.9c0-25 20.2-45.2 45.1-45.2z"/><path fill="#D2DCE1" d="M59.9 69.7h322.8c24.9 0 45.1 20.2 45.1 45.1v322.8c0 24.9-20.2 45.1-45.1 45.1H59.9c-24.9 0-45.1-20.2-45.1-45.1V114.8c0-24.9 20.2-45.1 45.1-45.1z"/><path fill="#D1DBE1" d="M59.8 69.6h322.8c24.9 0 45.1 20.2 45.1 45.1v322.8c0 24.9-20.2 45.1-45.1 45.1H59.8c-24.9 0-45.1-20.2-45.1-45.1V114.7c0-24.9 20.2-45.1 45.1-45.1z"/><path fill="#D0DBE2" d="M59.7 69.5h322.8c24.9 0 45.1 20.2 45.1 45.1v322.8c0 24.9-20.2 45.1-45.1 45.1H59.7c-24.9 0-45.1-20.2-45.1-45.1V114.6c0-24.9 20.2-45.1 45.1-45.1z"/><path fill="#D0DBE3" d="M59.6 69.4h322.8c24.9 0 45.1 20.2 45.1 45.1v322.8c0 24.9-20.2 45.1-45.1 45.1H59.6c-24.9 0-45.1-20.2-45.1-45.1V114.5c-.1-24.9 20.1-45.1 45.1-45.1z"/><path fill="#CFDBE3" d="M59.5 69.3h322.8c24.9 0 45.1 20.2 45.1 45.1v322.8c0 24.9-20.2 45.1-45.1 45.1H59.5c-24.9 0-45.1-20.2-45.1-45.1V114.4c-.1-24.9 20.1-45.1 45.1-45.1z"/><path fill="#CFDBE4" d="M59.4 69.2h322.8c24.9 0 45.1 20.2 45.1 45.1v322.8c0 24.9-20.2 45.1-45.1 45.1H59.4c-24.9 0-45.1-20.2-45.1-45.1V114.3c-.1-24.9 20.1-45.1 45.1-45.1z"/><path fill="#CEDBE5" d="M59.2 69.1H382c24.9 0 45.1 20.2 45.1 45.1V437c0 24.9-20.2 45.1-45.1 45.1H59.2c-24.9 0-45.1-20.2-45.1-45.1V114.2c0-24.9 20.2-45.1 45.1-45.1z"/><path fill="#CDDBE5" d="M59.1 69h322.8c24.9 0 45.1 20.2 45.1 45.1v322.8c0 24.9-20.2 45.1-45.1 45.1H59.1C34.2 482 14 461.8 14 436.9V114.2C14 89.2 34.2 69 59.1 69z"/><path fill="#CDDAE6" d="M59 68.9h322.8c24.9 0 45.1 20.2 45.1 45.1v322.8c0 24.9-20.2 45.1-45.1 45.1H59c-24.9 0-45.1-20.2-45.1-45.1V114.1c0-25 20.2-45.2 45.1-45.2z"/></g><g stroke="#231F20" stroke-width="5" stroke-miterlimit="10"><path fill="#EAE1C5" d="M604.1 83.1h322.8c24.9 0 45.1 20.2 45.1 45.1V451c0 24.9-20.2 45.1-45.1 45.1H604.1c-24.9 0-45.1-20.2-45.1-45.1V128.2c0-24.9 20.2-45.1 45.1-45.1z"/><path fill="#EBE1C6" d="M603.8 82.8h322.8c24.9 0 45.1 20.2 45.1 45.1v322.8c0 24.9-20.2 45.1-45.1 45.1H603.8c-24.9 0-45.1-20.2-45.1-45.1V127.9c-.1-24.9 20.1-45.1 45.1-45.1z"/><path fill="#EBE2C7" d="M603.4 82.4h322.8c24.9 0 45.1 20.2 45.1 45.1v322.8c0 24.9-20.2 45.1-45.1 45.1H603.4c-24.9 0-45.1-20.2-45.1-45.1V127.6c0-25 20.2-45.2 45.1-45.2z"/><path fill="#EBE2C8" d="M603 82.1h322.8c24.9 0 45.1 20.2 45.1 45.1V450c0 24.9-20.2 45.1-45.1 45.1H603c-24.9 0-45.1-20.2-45.1-45.1V127.3c0-25 20.2-45.2 45.1-45.2z"/><path fill="#EBE3C8" d="M602.7 81.8h322.8c24.9 0 45.1 20.2 45.1 45.1v322.8c0 24.9-20.2 45.1-45.1 45.1H602.7c-24.9 0-45.1-20.2-45.1-45.1V126.9c0-24.9 20.2-45.1 45.1-45.1z"/><path fill="#ECE3C9" d="M602.3 81.5h322.8c24.9 0 45.1 20.2 45.1 45.1v322.8c0 24.9-20.2 45.1-45.1 45.1H602.3c-24.9 0-45.1-20.2-45.1-45.1V126.6c0-24.9 20.2-45.1 45.1-45.1z"/><path fill="#ECE3CA" d="M602 81.2h322.8c24.9 0 45.1 20.2 45.1 45.1v322.8c0 24.9-20.2 45.1-45.1 45.1H602c-24.9 0-45.1-20.2-45.1-45.1V126.3c-.1-24.9 20.1-45.1 45.1-45.1z"/><path fill="#ECE4CB" d="M601.6 80.8h322.8c24.9 0 45.1 20.2 45.1 45.1v322.8c0 24.9-20.2 45.1-45.1 45.1H601.6c-24.9 0-45.1-20.2-45.1-45.1V126c0-25 20.2-45.2 45.1-45.2z"/><path fill="#ECE4CC" d="M601.3 80.5H924c24.9 0 45.1 20.2 45.1 45.1v322.8c0 24.9-20.2 45.1-45.1 45.1H601.3c-24.9 0-45.1-20.2-45.1-45.1V125.7c-.1-25 20.1-45.2 45.1-45.2z"/><path fill="#EDE5CC" d="M600.9 80.2h322.8c24.9 0 45.1 20.2 45.1 45.1v322.8c0 24.9-20.2 45.1-45.1 45.1H600.9c-24.9 0-45.1-20.2-45.1-45.1V125.3c0-24.9 20.2-45.1 45.1-45.1z"/><path fill="#EDE5CD" d="M600.5 79.9h322.8c24.9 0 45.1 20.2 45.1 45.1v322.8c0 24.9-20.2 45.1-45.1 45.1H600.5c-24.9 0-45.1-20.2-45.1-45.1V125c0-24.9 20.2-45.1 45.1-45.1z"/><path fill="#EDE5CE" d="M600.2 79.5H923c24.9 0 45.1 20.2 45.1 45.1v322.8c0 24.9-20.2 45.1-45.1 45.1H600.2c-24.9 0-45.1-20.2-45.1-45.1V124.7c-.1-25 20.2-45.2 45.1-45.2z"/><path fill="#EEE6CF" d="M599.8 79.2h322.8c24.9 0 45.1 20.2 45.1 45.1v322.8c0 24.9-20.2 45.1-45.1 45.1H599.8c-24.9 0-45.1-20.2-45.1-45.1V124.4c0-25 20.2-45.2 45.1-45.2z"/><path fill="#EEE6D0" d="M599.5 78.9h322.8c24.9 0 45.1 20.2 45.1 45.1v322.8c0 24.9-20.2 45.1-45.1 45.1H599.5c-24.9 0-45.1-20.2-45.1-45.1V124c-.1-24.9 20.1-45.1 45.1-45.1z"/><path fill="#EEE7D1" d="M599.1 78.6h322.8c24.9 0 45.1 20.2 45.1 45.1v322.8c0 24.9-20.2 45.1-45.1 45.1H599.1c-24.9 0-45.1-20.2-45.1-45.1V123.7c0-24.9 20.2-45.1 45.1-45.1z"/><path fill="#EEE7D1" d="M598.8 78.3h322.8c24.9 0 45.1 20.2 45.1 45.1v322.8c0 24.9-20.2 45.1-45.1 45.1H598.8c-24.9 0-45.1-20.2-45.1-45.1V123.4c-.1-24.9 20.1-45.1 45.1-45.1z"/><path fill="#EFE7D2" d="M598.4 77.9h322.8c24.9 0 45.1 20.2 45.1 45.1v322.8c0 24.9-20.2 45.1-45.1 45.1H598.4c-24.9 0-45.1-20.2-45.1-45.1V123.1c0-25 20.2-45.2 45.1-45.2z"/><path fill="#EFE8D3" d="M598 77.6h322.8c24.9 0 45.1 20.2 45.1 45.1v322.8c0 24.9-20.2 45.1-45.1 45.1H598c-24.9 0-45.1-20.2-45.1-45.1V122.8c0-25 20.2-45.2 45.1-45.2z"/><path fill="#EFE8D4" d="M597.7 77.3h322.8c24.9 0 45.1 20.2 45.1 45.1v322.8c0 24.9-20.2 45.1-45.1 45.1H597.7c-24.9 0-45.1-20.2-45.1-45.1V122.4c-.1-24.9 20.2-45.1 45.1-45.1z"/><path fill="#F0E9D5" d="M597.3 77h322.8c24.9 0 45.1 20.2 45.1 45.1v322.8c0 24.9-20.2 45.1-45.1 45.1H597.3c-24.9 0-45.1-20.2-45.1-45.1V122.1c0-24.9 20.2-45.1 45.1-45.1z"/><path fill="#F0E9D6" d="M597 76.7h322.8c24.9 0 45.1 20.2 45.1 45.1v322.8c0 24.9-20.2 45.1-45.1 45.1H597c-24.9 0-45.1-20.2-45.1-45.1V121.8c-.1-24.9 20.1-45.1 45.1-45.1z"/><path fill="#F0E9D7" d="M596.6 76.3h322.8c24.9 0 45.1 20.2 45.1 45.1v322.8c0 24.9-20.2 45.1-45.1 45.1H596.6c-24.9 0-45.1-20.2-45.1-45.1V121.5c0-25 20.2-45.2 45.1-45.2z"/><path fill="#F0EAD7" d="M596.3 76H919c24.9 0 45.1 20.2 45.1 45.1v322.8c0 24.9-20.2 45.1-45.1 45.1H596.3c-24.9 0-45.1-20.2-45.1-45.1V121.1c-.1-24.9 20.1-45.1 45.1-45.1z"/><path fill="#F1EAD8" d="M595.9 75.7h322.8c24.9 0 45.1 20.2 45.1 45.1v322.8c0 24.9-20.2 45.1-45.1 45.1H595.9c-24.9 0-45.1-20.2-45.1-45.1V120.8c0-24.9 20.2-45.1 45.1-45.1z"/><path fill="#F1EBD9" d="M595.5 75.4h322.8c24.9 0 45.1 20.2 45.1 45.1v322.8c0 24.9-20.2 45.1-45.1 45.1H595.5c-24.9 0-45.1-20.2-45.1-45.1V120.5c0-24.9 20.2-45.1 45.1-45.1z"/><path fill="#F1EBDA" d="M595.2 75H918c24.9 0 45.1 20.2 45.1 45.1V443c0 24.9-20.2 45.1-45.1 45.1H595.2c-24.9 0-45.1-20.2-45.1-45.1V120.2c-.1-25 20.2-45.2 45.1-45.2z"/><path fill="#F2ECDB" d="M594.8 74.7h322.8c24.9 0 45.1 20.2 45.1 45.1v322.8c0 24.9-20.2 45.1-45.1 45.1H594.8c-24.9 0-45.1-20.2-45.1-45.1V119.8c0-24.9 20.2-45.1 45.1-45.1z"/><path fill="#F2ECDC" d="M594.5 74.4h322.8c24.9 0 45.1 20.2 45.1 45.1v322.8c0 24.9-20.2 45.1-45.1 45.1H594.5c-24.9 0-45.1-20.2-45.1-45.1V119.5c-.1-24.9 20.1-45.1 45.1-45.1z"/><path fill="#F2ECDD" d="M594.1 74.1h322.8c24.9 0 45.1 20.2 45.1 45.1V442c0 24.9-20.2 45.1-45.1 45.1H594.1c-24.9 0-45.1-20.2-45.1-45.1V119.2c0-24.9 20.2-45.1 45.1-45.1z"/><path fill="#F2EDDD" d="M593.8 73.8h322.8c24.9 0 45.1 20.2 45.1 45.1v322.8c0 24.9-20.2 45.1-45.1 45.1H593.8c-24.9 0-45.1-20.2-45.1-45.1V118.9c-.1-24.9 20.1-45.1 45.1-45.1z"/><path fill="#F3EDDE" d="M593.4 73.4h322.8c24.9 0 45.1 20.2 45.1 45.1v322.8c0 24.9-20.2 45.1-45.1 45.1H593.4c-24.9 0-45.1-20.2-45.1-45.1V118.6c0-25 20.2-45.2 45.1-45.2z"/><path fill="#F3EEDF" d="M593 73.1h322.8c24.9 0 45.1 20.2 45.1 45.1V441c0 24.9-20.2 45.1-45.1 45.1H593c-24.9 0-45.1-20.2-45.1-45.1V118.2c0-24.9 20.2-45.1 45.1-45.1z"/><path fill="#F3EEE0" d="M592.7 72.8h322.8c24.9 0 45.1 20.2 45.1 45.1v322.8c0 24.9-20.2 45.1-45.1 45.1H592.7c-24.9 0-45.1-20.2-45.1-45.1V117.9c-.1-24.9 20.2-45.1 45.1-45.1z"/><path fill="#F4EFE1" d="M592.3 72.5h322.8c24.9 0 45.1 20.2 45.1 45.1v322.8c0 24.9-20.2 45.1-45.1 45.1H592.3c-24.9 0-45.1-20.2-45.1-45.1V117.6c0-24.9 20.2-45.1 45.1-45.1z"/><path fill="#F4EFE2" d="M592 72.1h322.8c24.9 0 45.1 20.2 45.1 45.1V440c0 24.9-20.2 45.1-45.1 45.1H592c-24.9 0-45.1-20.2-45.1-45.1V117.3c-.1-25 20.1-45.2 45.1-45.2z"/><path fill="#F4F0E3" d="M591.6 71.8h322.8c24.9 0 45.1 20.2 45.1 45.1v322.8c0 24.9-20.2 45.1-45.1 45.1H591.6c-24.9 0-45.1-20.2-45.1-45.1V117c0-25 20.2-45.2 45.1-45.2z"/><path fill="#F5F0E4" d="M591.3 71.5H914c24.9 0 45.1 20.2 45.1 45.1v322.8c0 24.9-20.2 45.1-45.1 45.1H591.3c-24.9 0-45.1-20.2-45.1-45.1V116.6c-.1-24.9 20.1-45.1 45.1-45.1z"/><path fill="#F5F0E4" d="M590.9 71.2h322.8c24.9 0 45.1 20.2 45.1 45.1v322.8c0 24.9-20.2 45.1-45.1 45.1H590.9c-24.9 0-45.1-20.2-45.1-45.1V116.3c0-24.9 20.2-45.1 45.1-45.1z"/><path fill="#F5F1E5" d="M590.5 70.8h322.8c24.9 0 45.1 20.2 45.1 45.1v322.8c0 24.9-20.2 45.1-45.1 45.1H590.5c-24.9 0-45.1-20.2-45.1-45.1V116c0-24.9 20.2-45.2 45.1-45.2z"/><path fill="#F6F1E6" d="M590.2 70.5H913c24.9 0 45.1 20.2 45.1 45.1v322.8c0 24.9-20.2 45.1-45.1 45.1H590.2c-24.9 0-45.1-20.2-45.1-45.1V115.7c-.1-25 20.1-45.2 45.1-45.2z"/><path fill="#F6F2E7" d="M589.8 70.2h322.8c24.9 0 45.1 20.2 45.1 45.1v322.8c0 24.9-20.2 45.1-45.1 45.1H589.8c-24.9 0-45.1-20.2-45.1-45.1V115.3c0-24.9 20.2-45.1 45.1-45.1z"/><path fill="#F6F2E8" d="M589.5 69.9h322.8c24.9 0 45.1 20.2 45.1 45.1v322.8c0 24.9-20.2 45.1-45.1 45.1H589.5c-24.9 0-45.1-20.2-45.1-45.1V115c-.1-24.9 20.1-45.1 45.1-45.1z"/><path fill="#F7F3E9" d="M589.1 69.6h322.8c24.9 0 45.1 20.2 45.1 45.1v322.8c0 24.9-20.2 45.1-45.1 45.1H589.1c-24.9 0-45.1-20.2-45.1-45.1V114.7c0-24.9 20.2-45.1 45.1-45.1z"/><path fill="#F7F3EA" d="M588.7 69.2h322.8c24.9 0 45.1 20.2 45.1 45.1v322.8c0 24.9-20.2 45.1-45.1 45.1H588.7c-24.9 0-45.1-20.2-45.1-45.1V114.4c0-25 20.2-45.2 45.1-45.2z"/><path fill="#F7F4EB" d="M588.4 68.9h322.8c24.9 0 45.1 20.2 45.1 45.1v322.8c0 24.9-20.2 45.1-45.1 45.1H588.4c-24.9 0-45.1-20.2-45.1-45.1V114.1c0-25 20.2-45.2 45.1-45.2z"/><path fill="#F8F4EC" d="M588 68.6h322.8c24.9 0 45.1 20.2 45.1 45.1v322.8c0 24.9-20.2 45.1-45.1 45.1H588c-24.9 0-45.1-20.2-45.1-45.1V113.7c0-24.9 20.2-45.1 45.1-45.1z"/><path fill="#F8F5ED" d="M587.7 68.3h322.8c24.9 0 45.1 20.2 45.1 45.1v322.8c0 24.9-20.2 45.1-45.1 45.1H587.7c-24.9 0-45.1-20.2-45.1-45.1V113.4c-.1-24.9 20.1-45.1 45.1-45.1z"/><path fill="#F8F5EE" d="M587.3 67.9h322.8c24.9 0 45.1 20.2 45.1 45.1v322.8c0 24.9-20.2 45.1-45.1 45.1H587.3c-24.9 0-45.1-20.2-45.1-45.1V113.1c0-24.9 20.2-45.2 45.1-45.2z"/><path fill="#F9F6EF" d="M587 67.6h322.8c24.9 0 45.1 20.2 45.1 45.1v322.8c0 24.9-20.2 45.1-45.1 45.1H587c-24.9 0-45.1-20.2-45.1-45.1V112.8c-.1-25 20.1-45.2 45.1-45.2z"/><path fill="#F9F6F0" d="M586.6 67.3h322.8c24.9 0 45.1 20.2 45.1 45.1v322.8c0 24.9-20.2 45.1-45.1 45.1H586.6c-24.9 0-45.1-20.2-45.1-45.1V112.4c0-24.9 20.2-45.1 45.1-45.1z"/><path fill="#FAF7F1" d="M586.2 67H909c24.9 0 45.1 20.2 45.1 45.1v322.8c0 24.9-20.2 45.1-45.1 45.1H586.2c-24.9 0-45.1-20.2-45.1-45.1V112.1c0-24.9 20.2-45.1 45.1-45.1z"/><path fill="#FAF8F2" d="M585.9 66.7h322.8c24.9 0 45.1 20.2 45.1 45.1v322.8c0 24.9-20.2 45.1-45.1 45.1H585.9c-24.9 0-45.1-20.2-45.1-45.1V111.8c-.1-24.9 20.2-45.1 45.1-45.1z"/><path fill="#FAF8F3" d="M585.5 66.3h322.8c24.9 0 45.1 20.2 45.1 45.1v322.8c0 24.9-20.2 45.1-45.1 45.1H585.5c-24.9 0-45.1-20.2-45.1-45.1V111.5c0-25 20.2-45.2 45.1-45.2z"/><path fill="#FBF9F4" d="M585.2 66H908c24.9 0 45.1 20.2 45.1 45.1v322.8c0 24.9-20.2 45.1-45.1 45.1H585.2c-24.9 0-45.1-20.2-45.1-45.1V111.2c-.1-25 20.1-45.2 45.1-45.2z"/><path fill="#FBF9F5" d="M584.8 65.7h322.8c24.9 0 45.1 20.2 45.1 45.1v322.8c0 24.9-20.2 45.1-45.1 45.1H584.8c-24.9 0-45.1-20.2-45.1-45.1V110.8c0-24.9 20.2-45.1 45.1-45.1z"/><path fill="#FCFAF6" d="M584.5 65.4h322.8c24.9 0 45.1 20.2 45.1 45.1v322.8c0 24.9-20.2 45.1-45.1 45.1H584.5c-24.9 0-45.1-20.2-45.1-45.1V110.5c-.1-24.9 20.1-45.1 45.1-45.1z"/><path fill="#FCFBF7" d="M584.1 65.1h322.8c24.9 0 45.1 20.2 45.1 45.1V433c0 24.9-20.2 45.1-45.1 45.1H584.1c-24.9 0-45.1-20.2-45.1-45.1V110.2c0-24.9 20.2-45.1 45.1-45.1z"/><path fill="#FDFCF8" d="M583.7 64.7h322.8c24.9 0 45.1 20.2 45.1 45.1v322.8c0 24.9-20.2 45.1-45.1 45.1H583.7c-24.9 0-45.1-20.2-45.1-45.1V109.9c0-25 20.2-45.2 45.1-45.2z"/><path fill="#FDFCFA" d="M583.4 64.4h322.8c24.9 0 45.1 20.2 45.1 45.1v322.8c0 24.9-20.2 45.1-45.1 45.1H583.4c-24.9 0-45.1-20.2-45.1-45.1V109.6c-.1-25 20.2-45.2 45.1-45.2z"/><path fill="#FEFDFB" d="M583 64.1h322.8c24.9 0 45.1 20.2 45.1 45.1V432c0 24.9-20.2 45.1-45.1 45.1H583c-24.9 0-45.1-20.2-45.1-45.1V109.2c0-24.9 20.2-45.1 45.1-45.1z"/><path fill="#FEFEFD" d="M582.7 63.8h322.8c24.9 0 45.1 20.2 45.1 45.1v322.8c0 24.9-20.2 45.1-45.1 45.1H582.7c-24.9 0-45.1-20.2-45.1-45.1V108.9c-.1-24.9 20.1-45.1 45.1-45.1z"/><path fill="#FFF" d="M582.3 63.4h322.8c24.9 0 45.1 20.2 45.1 45.1v322.8c0 24.9-20.2 45.1-45.1 45.1H582.3c-24.9 0-45.1-20.2-45.1-45.1V108.6c0-25 20.2-45.2 45.1-45.2z"/></g><path fill="none" stroke="#231F20" stroke-width="5" stroke-linecap="round" stroke-miterlimit="10" d="M356.1 85.2h26c15.2 0 27.6 12.3 27.6 27.6v29.9M86.4 464.3h-26c-15.2 0-27.6-12.4-27.6-27.6v-29.9"/><path fill="#231F20" d="m190.2 312.3-13.5 40.5H153l54-160.9h33.1l54 160.9h-25.4l-13.3-40.5h-65.2zm6-19.1h52.9l-26.3-80.6-26.6 80.6zM830.3 197.1h-22.2v160.1l-6.5-.1-15.2-19.1v-64c-7.9 3-15.3 4.5-22.3 4.5H756v8.7c0 10.8-3.7 19.5-10.9 26.2s-16.4 10.1-27.2 10.1c-13.2 0-25.5-6.2-36.8-18.7s-18.5-28.6-21.2-48.4h7c3.1 14.9 8.8 26.5 17.1 35s17.8 12.7 28.5 12.7c7.1 0 13.4-2.5 18.9-7.6s8.2-11.2 8.2-18.5c0-6.5-3.1-12.3-9.3-17.3s-13.5-7.5-21.9-7.5c-4.9 0-9.6.9-14.3 2.8l-15.4-18.7c18.5-1.5 32.6-5.1 42.3-10.8s14.5-12.2 14.5-19.4c0-5.3-2-9.7-6-13-4-3.3-9.3-5-16.1-5s-20.5 4.6-40.7 13.9l-12.5-17.5c12.5-5.7 25.2-8.6 37.9-8.6 14.8 0 26.5 3.6 35.1 10.8 8.6 7.2 12.9 16.7 12.9 28.5 0 8.5-2.4 15.1-7.1 19.8-4.7 4.7-10.9 8.6-18.6 11.8 17 7.4 29.7 11.1 37.9 11.1s15.1-2.3 20.3-6.8c5.2-4.5 7.9-10.8 7.9-18.9V197h-21.6l-15.8-19.9h81.4"/><path fill="none" stroke="#231F20" stroke-width="5" stroke-linecap="round" stroke-miterlimit="10" d="M609.7 456.2h-26c-15.2 0-27.6-12.4-27.6-27.6v-29.9M870 92.2h26c15.2 0 27.6 12.4 27.6 27.6v29.9"/></svg>