<svg enable-background="new 0 0 14 14" viewBox="0 0 14 14" xmlns="http://www.w3.org/2000/svg"><g fill="#020202"><path d="m7 .9c.8 0 1.6.2 2.4.5.7.3 1.4.7 1.9 1.3.6.6 1 1.2 1.3 1.9.4.8.5 1.6.5 2.4s-.1 1.6-.5 2.4c-.3.7-.7 1.4-1.3 1.9-.6.6-1.2 1-1.9 1.3-.8.4-1.6.5-2.4.5s-1.6-.1-2.4-.5c-.7-.3-1.4-.7-1.9-1.3-.6-.6-1-1.2-1.3-1.9-.4-.8-.5-1.6-.5-2.4s.1-1.6.5-2.4c.3-.7.7-1.4 1.3-1.9s1.2-1 1.9-1.3c.8-.4 1.6-.5 2.4-.5m0-.9c-3.9 0-7 3.1-7 7s3.1 7 7 7 7-3.1 7-7-3.1-7-7-7z"/><path d="m8.3 9.6h-.2c-.1 0-.2-.1-.2-.2v-2.4-.2c0-.4-.3-.8-.8-.8h-.1c-.7 0-1.3.3-1.6.8v.2h.4c.2 0 .3.1.3.2v2.2c0 .1-.1.2-.2.2h-.2c-.2 0-.4.2-.4.4 0 .2.2.4.4.4h.4 1.8.4c.2 0 .4-.2.4-.4.1-.2-.1-.4-.4-.4z"/><path d="m7 3.5c-.5 0-.9.4-.9.9s.4.9.9.9.9-.4.9-.9-.4-.9-.9-.9z"/></g></svg>