<svg id="Layer_1" data-name="Layer 1" xmlns="http://www.w3.org/2000/svg" xmlns:xlink="http://www.w3.org/1999/xlink" viewBox="0 0 5180 2664"><defs><style>.cls-1{fill:url(#radial-gradient);}.cls-2{mask:url(#mask);}.cls-3{fill:none;stroke:#4293b2;stroke-miterlimit:10;}</style><radialGradient id="radial-gradient" cx="2765.36" cy="-2393" fx="2755.3074828343483" fy="-2713.6190985072885" r="3381.5" gradientTransform="translate(-571.49 2595.46) scale(1.1 0.49)" gradientUnits="userSpaceOnUse"><stop offset="0.39" stop-color="#fff"/><stop offset="0.43" stop-color="#f9f9f9"/><stop offset="0.48" stop-color="#e7e7e7"/><stop offset="0.55" stop-color="#cacaca"/><stop offset="0.62" stop-color="#a1a1a1"/><stop offset="0.68" stop-color="#797979"/><stop offset="0.73" stop-color="#555"/><stop offset="0.83"/><stop offset="0.98"/><stop offset="1"/></radialGradient><mask id="mask" x="-558.8" y="-1070.7" width="6327.8" height="4826.8" maskUnits="userSpaceOnUse"><g id="mask-2" data-name="mask"><g id="mask-2-2" data-name="mask-2"><g id="mask-2-2-2" data-name="mask-2-2"><g id="SVGID"><rect class="cls-1" x="-558.8" y="-127.5" width="6327.8" height="3108.5"/></g></g></g></g></mask></defs><title>Pro-int-wave</title><g class="cls-2"><path class="cls-3" d="M3507.6-1070.2H1679.9A830.12,830.12,0,0,0,961-655.2L47.1,927.7a830,830,0,0,0,0,830.1L961,3340.6a830.25,830.25,0,0,0,718.9,415H3507.6a830.12,830.12,0,0,0,718.9-415l913.8-1582.8a830,830,0,0,0,0-830.1L4226.5-655.2A830.24,830.24,0,0,0,3507.6-1070.2Z"/><path class="cls-3" d="M3478.8-994.3h-1770a804.29,804.29,0,0,0-696.3,402L127.3,940.7a804.1,804.1,0,0,0,0,804l885.1,1533.1a804,804,0,0,0,696.3,402H3479a804.29,804.29,0,0,0,696.3-402l885-1533.1a804.1,804.1,0,0,0,0-804l-885.1-1533A804.25,804.25,0,0,0,3478.8-994.3Z"/><path class="cls-3" d="M3450.1-918.4H1737.4a777.92,777.92,0,0,0-673.7,388.9L207.4,953.8a778,778,0,0,0,0,777.8l856.4,1483.2a777.59,777.59,0,0,0,673.7,388.9H3450.2a777.92,777.92,0,0,0,673.7-388.9l856.3-1483.2a778,778,0,0,0,0-777.8L4123.8-529.4A778,778,0,0,0,3450.1-918.4Z"/><path class="cls-3" d="M3421.3-842.5H1766.2a752,752,0,0,0-651.1,375.9L287.5,966.8a751.78,751.78,0,0,0,0,751.8l827.6,1433.5A751.85,751.85,0,0,0,1766.2,3528H3421.4a752,752,0,0,0,651.1-375.9L4900,1718.7a751.78,751.78,0,0,0,0-751.8L4072.4-466.6A751.85,751.85,0,0,0,3421.3-842.5Z"/><path class="cls-3" d="M3392.6-766.5H1794.9a725.8,725.8,0,0,0-628.5,362.8L367.6,980a725.86,725.86,0,0,0,0,725.7l798.9,1383.6A725.68,725.68,0,0,0,1795,3452.1H3392.7a725.8,725.8,0,0,0,628.5-362.8L4820,1705.6a725.68,725.68,0,0,0,0-725.6L4021-403.7A725.64,725.64,0,0,0,3392.6-766.5Z"/><path class="cls-3" d="M3363.8-690.6H1823.7a699.88,699.88,0,0,0-605.9,349.7L447.7,993a699.28,699.28,0,0,0,0,699.5l770.1,1333.9a699.64,699.64,0,0,0,605.9,349.7H3363.9a699.88,699.88,0,0,0,605.9-349.7l770-1333.8a699.28,699.28,0,0,0,0-699.5l-770.1-1334A699.76,699.76,0,0,0,3363.8-690.6Z"/><path class="cls-3" d="M3335-614.7H1852.4A673.32,673.32,0,0,0,1269.2-278L527.8,1006a673.84,673.84,0,0,0,0,673.4l741.3,1284a673.11,673.11,0,0,0,583.2,336.7H3335a673.32,673.32,0,0,0,583.2-336.7l741.3-1283.9a673.84,673.84,0,0,0,0-673.4l-741.3-1284A673.29,673.29,0,0,0,3335-614.7Z"/><path class="cls-3" d="M3306.4-538.8H1881.2a647.39,647.39,0,0,0-560.6,323.6L607.9,1019a647.44,647.44,0,0,0,0,647.3l712.7,1234.3a647.39,647.39,0,0,0,560.6,323.6H3306.4A647.27,647.27,0,0,0,3867,2900.6l712.5-1234.2a647.44,647.44,0,0,0,0-647.3L3866.9-215.2A647.44,647.44,0,0,0,3306.4-538.8Z"/><path class="cls-3" d="M3277.6-462.9H1909.9a621.44,621.44,0,0,0-538,310.5L688.1,1032.1a621,621,0,0,0,0,621.2L1372,2837.8a621,621,0,0,0,538,310.5H3277.7a621.44,621.44,0,0,0,538-310.5l683.8-1184.5a621,621,0,0,0,0-621.2L3815.6-152.3A621.32,621.32,0,0,0,3277.6-462.9Z"/><path class="cls-3" d="M3248.8-387h-1310A595.28,595.28,0,0,0,1423.4-89.5L768.3,1045.2a595.42,595.42,0,0,0,0,595l655.1,1134.7a595,595,0,0,0,515.4,297.5H3249a595.28,595.28,0,0,0,515.4-297.5l655.1-1134.6a595.42,595.42,0,0,0,0-595L3764.2-89.5A595.16,595.16,0,0,0,3248.8-387Z"/><path class="cls-3" d="M3220.1-311H1967.4A569.11,569.11,0,0,0,1474.6-26.6L848.4,1058.3a569,569,0,0,0,0,568.9l626.4,1084.9a568.78,568.78,0,0,0,492.8,284.4H3220.3a569.11,569.11,0,0,0,492.8-284.4l626.2-1084.9a569,569,0,0,0,0-568.9L3712.8-26.6A568.74,568.74,0,0,0,3220.1-311Z"/><path class="cls-3" d="M3191.3-235.1H1996.2A543,543,0,0,0,1526,36.3l-597.6,1035a542.8,542.8,0,0,0,0,542.9l597.6,1035a542.83,542.83,0,0,0,470.2,271.4H3191.4a543.28,543.28,0,0,0,470.2-271.4l597.5-1035a542.8,542.8,0,0,0,0-542.9L3661.5,36.3A543,543,0,0,0,3191.3-235.1Z"/><path class="cls-3" d="M3162.6-159.2H2024.9A517.21,517.21,0,0,0,1577.3,99.2l-568.8,985.2a516.7,516.7,0,0,0,0,516.7l568.8,985.2a516.76,516.76,0,0,0,447.6,258.4H3162.6a517.21,517.21,0,0,0,447.6-258.4L4179,1601a516.7,516.7,0,0,0,0-516.7L3610,99.2A516.44,516.44,0,0,0,3162.6-159.2Z"/><path class="cls-3" d="M3133.8-83.3H2053.7A490.39,490.39,0,0,0,1628.9,162l-540.1,935.5a490.78,490.78,0,0,0,0,490.6l540.1,935.5a490.21,490.21,0,0,0,424.8,245.2H3133.9a490.51,490.51,0,0,0,424.8-245.2l540-935.5a490.78,490.78,0,0,0,0-490.6L3558.6,162A490.39,490.39,0,0,0,3133.8-83.3Z"/><path class="cls-3" d="M3105-7.4H2082.4a464.35,464.35,0,0,0-402.2,232.2l-511.3,885.6a464.19,464.19,0,0,0,0,464.4l511.3,885.6a464.47,464.47,0,0,0,402.2,232.2H3105a464.35,464.35,0,0,0,402.2-232.2l511.3-885.6a464.19,464.19,0,0,0,0-464.4L3507.2,224.8A464.35,464.35,0,0,0,3105-7.4Z"/><path class="cls-3" d="M3076.3,68.5H2111.2a438.4,438.4,0,0,0-379.6,219.2L1249,1123.6a438.46,438.46,0,0,0,0,438.4l482.6,835.9a438.4,438.4,0,0,0,379.6,219.2h965.2A438.4,438.4,0,0,0,3456,2397.9L3938.6,1562a438.46,438.46,0,0,0,0-438.4L3456,287.7A438.89,438.89,0,0,0,3076.3,68.5Z"/><path class="cls-3" d="M3047.5,144.5H2140a412.14,412.14,0,0,0-357,206.1l-453.8,786a412.54,412.54,0,0,0,0,412.3l453.8,786A412,412,0,0,0,2140,2541h907.7a412.14,412.14,0,0,0,357-206.1l453.7-786a412.54,412.54,0,0,0,0-412.3l-453.9-786A412.11,412.11,0,0,0,3047.5,144.5Z"/><path class="cls-3" d="M3018.9,220.4H2168.8a386.19,386.19,0,0,0-334.4,193.1l-425.2,736.2a386.44,386.44,0,0,0,0,386.1L1834.3,2272a386.07,386.07,0,0,0,334.4,193.1h850.1A386.19,386.19,0,0,0,3353.2,2272l425.1-736.3a386.44,386.44,0,0,0,0-386.1L3353.2,413.4A386.27,386.27,0,0,0,3018.9,220.4Z"/><path class="cls-3" d="M2990.1,296.3H2197.5a360,360,0,0,0-311.8,180l-396.4,686.4a360,360,0,0,0,0,360l396.4,686.4a359.91,359.91,0,0,0,311.8,180h792.6a360,360,0,0,0,311.8-180l396.3-686.4a360,360,0,0,0,0-360L3301.8,476.3A359.87,359.87,0,0,0,2990.1,296.3Z"/><path class="cls-3" d="M2961.3,372.2H2226.2a333.7,333.7,0,0,0-289.1,166.9l-367.6,636.6a333.64,333.64,0,0,0,0,333.9l367.6,636.7a333.94,333.94,0,0,0,289.1,166.9h735.3a333.7,333.7,0,0,0,289.1-166.9l367.6-636.6a333.64,333.64,0,0,0,0-333.9L3250.6,539.1A334.27,334.27,0,0,0,2961.3,372.2Z"/><path class="cls-3" d="M2932.6,448.1H2255A307.87,307.87,0,0,0,1988.5,602l-338.8,586.9a308.2,308.2,0,0,0,0,307.8l338.8,586.9A307.87,307.87,0,0,0,2255,2237.5h677.7a307.63,307.63,0,0,0,266.5-153.9L3538,1496.7a308.2,308.2,0,0,0,0-307.8L3199.2,602A307.91,307.91,0,0,0,2932.6,448.1Z"/><path class="cls-3" d="M2903.8,524H2283.7a281.7,281.7,0,0,0-243.9,140.8l-310.1,537a281.61,281.61,0,0,0,0,281.6l310.1,537a281.7,281.7,0,0,0,243.9,140.8h620.1a281.7,281.7,0,0,0,243.9-140.8l310-537a281.61,281.61,0,0,0,0-281.6l-310.1-537A281.54,281.54,0,0,0,2903.8,524Z"/><path class="cls-3" d="M2875,599.9H2312.4a255.54,255.54,0,0,0-221.3,127.8L1809.8,1215a255.21,255.21,0,0,0,0,255.5l281.3,487.3a255.42,255.42,0,0,0,221.3,127.8H2875a255.54,255.54,0,0,0,221.3-127.8l281.3-487.3a255.21,255.21,0,0,0,0-255.5L3096.3,727.7A255.54,255.54,0,0,0,2875,599.9Z"/><path class="cls-3" d="M2846.3,675.9H2341.2a229.38,229.38,0,0,0-198.7,114.7L1890,1228.1a230,230,0,0,0,0,229.5L2142.5,1895a229.38,229.38,0,0,0,198.7,114.7h505.1A229.38,229.38,0,0,0,3045,1895l252.5-437.4a230,230,0,0,0,0-229.5L3045,790.7A229.47,229.47,0,0,0,2846.3,675.9Z"/><path class="cls-3" d="M2817.5,751.8H2370a203.46,203.46,0,0,0-176.1,101.6l-223.8,387.7a203.38,203.38,0,0,0,0,203.3l223.8,387.7A203.21,203.21,0,0,0,2370,1933.7h447.7a203.46,203.46,0,0,0,176.1-101.6l223.8-387.7a203.38,203.38,0,0,0,0-203.3L2993.7,853.4A203.5,203.5,0,0,0,2817.5,751.8Z"/><path class="cls-3" d="M2788.9,827.7H2398.8a177.1,177.1,0,0,0-153.4,88.6l-195.1,337.8a177,177,0,0,0,0,177.2l195,337.8a177.22,177.22,0,0,0,153.4,88.6h390.1a177.1,177.1,0,0,0,153.4-88.6l195-337.8a177,177,0,0,0,0-177.2l-195-337.8A177.06,177.06,0,0,0,2788.9,827.7Z"/><path class="cls-3" d="M2760.1,903.6H2427.5a150.82,150.82,0,0,0-130.8,75.6l-166.4,288a150.87,150.87,0,0,0,0,151l166.4,288a151.06,151.06,0,0,0,130.8,75.6h332.6a150.82,150.82,0,0,0,130.8-75.6l166.2-288a150.87,150.87,0,0,0,0-151l-166.4-288A150.5,150.5,0,0,0,2760.1,903.6Z"/><path class="cls-3" d="M2731.3,979.5H2456.2A124.9,124.9,0,0,0,2348,1042l-137.6,238.3a125.14,125.14,0,0,0,0,125L2348,1643.6a125,125,0,0,0,108.2,62.4h275.1a125,125,0,0,0,108.2-62.4L2977,1405.3a125.14,125.14,0,0,0,0-125L2839.5,1042A125,125,0,0,0,2731.3,979.5Z"/><path class="cls-3" d="M2702.6,1055.4H2485a98.85,98.85,0,0,0-85.6,49.4l-108.8,188.4a99,99,0,0,0,0,98.8l108.8,188.4a99.16,99.16,0,0,0,85.6,49.5h217.7a98.85,98.85,0,0,0,85.6-49.4l108.8-188.4a99,99,0,0,0,0-98.8l-108.9-188.4A99.16,99.16,0,0,0,2702.6,1055.4Z"/><path class="cls-3" d="M2673.8,1131.4H2513.7a72.78,72.78,0,0,0-63,36.4l-80.1,138.7a72.64,72.64,0,0,0,0,72.7l80.1,138.7a72.78,72.78,0,0,0,63,36.4h160.1a72.78,72.78,0,0,0,63-36.4l80.1-138.7a72.64,72.64,0,0,0,0-72.7l-80.1-138.7A72.78,72.78,0,0,0,2673.8,1131.4Z"/><path class="cls-3" d="M2645,1207.3H2542.4a46.74,46.74,0,0,0-40.4,23.3l-51.3,88.8a46.72,46.72,0,0,0,0,46.6l51.3,88.8a46.62,46.62,0,0,0,40.4,23.3H2645a46.74,46.74,0,0,0,40.4-23.3l51.3-88.8a46.72,46.72,0,0,0,0-46.6l-51.3-88.8A46.62,46.62,0,0,0,2645,1207.3Z"/><path class="cls-3" d="M2616.3,1283.2h-45.1a20.58,20.58,0,0,0-17.8,10.3l-22.5,39.1a20.81,20.81,0,0,0,0,20.5l22.5,39.1a20.67,20.67,0,0,0,17.8,10.3h45.1a20.58,20.58,0,0,0,17.8-10.3l22.5-39.1a20.81,20.81,0,0,0,0-20.5l-22.5-39.1A20.79,20.79,0,0,0,2616.3,1283.2Z"/></g></svg>